Coordinates
version=1
nRows=4
nColumns=63
inDegrees=yes

Units are S.I. units (second, meters, Newtons, ...)
If the header above contains a line with 'inDegrees', this indicates whether rotational values are in degrees (yes) or radians (no).

endheader
time	pelvis_tilt	pelvis_list	pelvis_rotation	pelvis_tx	pelvis_ty	pelvis_tz	hip_flexion_r	hip_adduction_r	hip_rotation_r	knee_angle_r	knee_angle_r_beta	ankle_angle_r	subtalar_angle_r	mtp_angle_r	hip_flexion_l	hip_adduction_l	hip_rotation_l	knee_angle_l	knee_angle_l_beta	ankle_angle_l	subtalar_angle_l	mtp_angle_l	L5_S1_Flex_Ext	L5_S1_Lat_Bending	L5_S1_axial_rotation	L4_L5_Flex_Ext	L4_L5_Lat_Bending	L4_L5_axial_rotation	L3_L4_Flex_Ext	L3_L4_Lat_Bending	L3_L4_axial_rotation	L2_L3_Flex_Ext	L2_L3_Lat_Bending	L2_L3_axial_rotation	L1_L2_Flex_Ext	L1_L2_Lat_Bending	L1_L2_axial_rotation	L1_T12_Flex_Ext	L1_T12_Lat_Bending	L1_T12_axial_rotation	Abs_r3	Abs_r2	Abs_r1	Abs_t1	Abs_t2	neck_flexion	neck_bending	neck_rotation	arm_flex_r	arm_add_r	arm_rot_r	elbow_flex_r	pro_sup_r	wrist_flex_r	wrist_dev_r	arm_flex_l	arm_add_l	arm_rot_l	elbow_flex_l	pro_sup_l	wrist_flex_l	wrist_dev_l
      3.75000000	    -44.37581678	      1.07771926	     -0.60399657	     -0.18019009	      1.10430800	     -0.00516436	     83.09973543	     -2.70155508	     -1.63295369	     66.26401014	      1.15652515	      5.36831654	     -4.01779668	      0.00000000	    114.83919119	     -2.69095532	      6.26038288	     91.05371246	      1.58918708	     26.05604146	     -0.51580110	      0.00000000	     -0.08412841	     -0.32970199	      0.44720226	     -0.15623486	     -0.43850365	      0.47515240	     -0.13821456	     -0.80163742	      0.47515240	     -0.09615036	     -0.80163742	      0.39130198	     -0.07812164	     -0.67232830	      0.36335184	     -0.04807097	     -0.51070839	      0.33540170	     -0.60092080	     -3.72965487	      2.48720483	      0.00000000	      0.00000000	     -0.00000000	      0.00000000	      0.00000000	     56.34266937	    -11.08917566	     19.73894885	     45.39697762	     29.58776455	      0.00000000	      5.00000620	     63.29597112	     -9.61248602	     33.78754465	     38.90778829	     48.50363442	      0.00000000	      5.00000620
      3.75800000	    -44.30884877	      0.65895672	     -0.64447331	     -0.18027329	      1.10424980	     -0.00551205	     84.16618036	     -2.76558833	     -1.90268277	     69.54224845	      1.21374120	      5.50915115	     -3.49065130	      0.00000000	    113.39521924	     -2.66951121	      6.37308708	     87.98279783	      1.53558951	     26.13291448	     -1.23451007	      0.00000000	     -0.08310808	     -0.26948571	      0.46262970	     -0.15434002	     -0.35841599	      0.49154405	     -0.13653827	     -0.65522755	      0.49154405	     -0.09498423	     -0.65522755	      0.40480098	     -0.07717416	     -0.54953526	      0.37588663	     -0.04748796	     -0.41743336	      0.34697227	     -0.59363272	     -3.04847624	      2.57300757	      0.00000000	      0.00000000	     -0.00000000	      0.00000000	      0.00000000	     56.55973446	    -11.15939523	     20.12759932	     45.26658190	     29.60172035	      0.00000000	      5.00000614	     63.22626519	     -9.14450489	     33.13746561	     38.21902415	     48.41658479	      0.00000000	      5.00000614
      3.76700000	    -44.27054949	      0.25069654	     -0.55109314	     -0.18053539	      1.10438991	     -0.00610937	     85.28722438	     -3.05511449	     -2.22546819	     72.68898441	      1.26866211	      5.92746834	     -2.62224637	      0.00000000	    111.76997963	     -2.60250316	      6.32179228	     84.64931914	      1.47740933	     25.80550124	     -2.20728310	      0.00000000	     -0.08347838	     -0.20622150	      0.44474333	     -0.15502770	     -0.27427459	      0.47253979	     -0.13714663	     -0.50140695	      0.47253979	     -0.09540744	     -0.50140695	      0.38915041	     -0.07751803	     -0.42052688	      0.36135396	     -0.04769955	     -0.31943710	      0.33355750	     -0.59627773	     -2.33281885	      2.47352898	      0.00000000	      0.00000000	     -0.00000000	      0.00000000	      0.00000000	     56.85701680	    -11.21620474	     20.77738651	     45.12152186	     29.63258288	      0.00000000	      5.00000604	     63.17089869	     -8.64585525	     32.11123466	     37.44571140	     48.27620612	      0.00000000	      5.00000604
      3.77500000	    -44.21760695	     -0.27124171	     -0.59363755	     -0.18073763	      1.10437801	     -0.00655823	     86.45939207	     -3.15733184	     -2.52264277	     75.83930722	      1.32364561	      6.58632703	     -1.78604825	      0.00000000	    110.10305003	     -2.64792008	      6.48565202	     81.39413291	      1.42059561	     25.11318970	     -3.08806586	      0.00000000	     -0.08282727	     -0.12817592	      0.45998222	     -0.15381853	     -0.17047397	      0.48873110	     -0.13607693	     -0.31164692	      0.48873110	     -0.09466329	     -0.31164692	      0.40248444	     -0.07691341	     -0.26137633	      0.37373555	     -0.04732750	     -0.19854449	      0.34498666	     -0.59162693	     -1.44995160	      2.55828309	      0.00000000	      0.00000000	     -0.00000000	      0.00000000	      0.00000000	     57.15947575	    -11.36851096	     21.38848922	     44.93400104	     29.65936096	      0.00000000	      5.00000595	     63.06690122	     -8.09887900	     31.12631443	     36.82245517	     48.13761198	      0.00000000	      5.00000595
